<?xml version="1.0" standalone="no"?>
<!DOCTYPE svg PUBLIC "-//W3C//DTD SVG 20010904//EN"
 "http://www.w3.org/TR/2001/REC-SVG-20010904/DTD/svg10.dtd">
<svg version="1.0" xmlns="http://www.w3.org/2000/svg"
 width="700.000000pt" height="700.000000pt" viewBox="0 0 700.000000 700.000000"
 preserveAspectRatio="xMidYMid meet">
<metadata>
Created by potrace 1.11, written by Peter Selinger 2001-2013
</metadata>
<g transform="translate(0.000000,700.000000) scale(0.100000,-0.100000)"
fill="#000000" stroke="none">
<path d="M1957 6818 c-416 -434 -672 -787 -836 -1155 -115 -256 -161 -450
-181 -768 -33 -500 67 -948 260 -1167 l42 -48 -30 0 c-102 0 -252 112 -384
287 -22 28 -68 100 -104 159 l-64 107 0 -274 c0 -737 82 -1235 287 -1759 61
-155 230 -523 293 -639 336 -617 914 -1081 1545 -1241 245 -61 281 -65 645
-65 350 1 498 12 770 56 463 76 874 238 1151 455 30 24 59 44 63 44 14 0 227
-190 375 -334 79 -78 142 -134 139 -126 -3 8 -39 86 -79 173 l-74 157 -127
113 c-70 61 -127 114 -127 117 0 3 25 34 55 70 219 253 344 565 385 960 16
154 6 485 -20 655 -92 613 -347 1146 -741 1555 -61 64 -80 79 -76 60 45 -194
52 -431 17 -563 -25 -96 -60 -162 -115 -217 -68 -69 -70 -69 -96 8 -37 112
-136 304 -230 444 -244 364 -550 636 -955 848 -581 304 -847 510 -1078 832
-205 286 -368 714 -497 1300 -16 71 -31 132 -33 134 -3 3 -84 -77 -180 -178z
m410 -1975 c51 -94 104 -202 119 -240 102 -260 262 -499 488 -730 l119 -123
-21 -112 c-20 -105 -53 -343 -51 -378 0 -8 22 46 48 120 71 201 111 292 126
286 7 -2 68 -44 136 -91 123 -86 174 -128 359 -295 112 -101 231 -205 316
-277 l61 -52 1 -216 c0 -118 4 -220 8 -227 4 -6 23 67 42 163 19 96 38 178 42
183 5 5 49 -23 102 -66 51 -41 167 -132 258 -203 218 -169 307 -246 316 -270
4 -11 37 -170 74 -353 l67 -334 6 99 c4 54 7 168 8 253 0 85 4 163 8 173 6 15
16 9 67 -45 181 -189 283 -446 315 -788 10 -113 8 -264 -4 -277 -3 -2 -65 44
-139 104 -329 270 -712 553 -1138 843 -441 300 -588 417 -848 674 -241 236
-400 426 -568 676 -215 319 -349 593 -489 1000 -52 153 -52 122 1 -98 148
-610 484 -1181 999 -1698 271 -273 379 -360 850 -689 463 -323 657 -467 1024
-759 l214 -171 -54 -12 c-139 -32 -663 -71 -769 -58 -93 12 -261 73 -422 154
-180 90 -440 240 -434 249 2 4 119 66 259 137 140 72 254 131 253 132 -2 2
-373 -127 -516 -180 l-95 -35 -125 85 c-326 222 -654 533 -899 852 -39 51 -70
96 -68 98 3 2 62 21 133 43 71 21 181 57 244 79 l115 39 -85 -6 c-47 -4 -181
-7 -299 -7 l-215 0 -58 95 c-155 251 -306 608 -361 851 l-14 66 191 7 c105 4
194 10 199 15 4 4 -32 15 -80 24 -49 9 -142 32 -207 50 -112 31 -121 35 -130
63 -5 16 -10 153 -10 304 -1 248 1 287 23 400 54 290 137 494 319 784 l24 39
37 -89 c20 -49 78 -166 128 -261z"/>
<path d="M3126 6120 c-16 -81 1 -287 34 -408 37 -136 101 -233 242 -367 119
-115 215 -181 498 -345 315 -182 338 -199 564 -420 l148 -145 -7 60 c-10 93
-52 280 -86 385 -46 144 -92 232 -161 305 -75 81 -150 130 -353 234 -88 44
-205 111 -261 148 -55 38 -161 108 -235 157 -204 137 -310 249 -360 384 l-16
44 -7 -32z"/>
</g>
</svg>
