<svg width="70" height="70" viewBox="0 0 70 70" fill="none" xmlns="http://www.w3.org/2000/svg">
<g clip-path="url(#clip0)">
<path d="M59.7031 48.2987C59.7031 63.3747 47.1367 67.5173 33.5041 67.5173C23.4705 67.5173 14.8351 60.897 10.9749 51.391C6.27312 41.7892 6.61255 34.2747 6.61255 27.6783C9.27687 32.7057 11.6408 33.4389 12.4897 33.177C11.1184 32.1951 8.61079 28.0317 9.55114 19.2337C10.4915 10.4356 18.8388 2.55301 21.3856 0C24.3242 14.1397 27.9663 17.859 37.5657 22.7686C45.2452 26.6963 48.7323 33.4389 49.516 36.3192C52.337 34.7481 51.8103 29.904 51.1943 27.6783C56.4069 32.6832 59.7031 40.0653 59.7031 48.2987Z" fill="#673AB7"/>
<path d="M59.7031 48.2987C59.7031 63.3747 47.1367 67.5173 33.5041 67.5173C23.4705 67.5173 14.8351 60.897 10.9749 51.391C6.27312 41.7892 6.61255 34.2747 6.61255 27.6783C9.27687 32.7057 11.6408 33.4389 12.4897 33.177C11.1184 32.1951 8.61079 28.0317 9.55114 19.2337C10.4915 10.4356 18.8388 2.55301 21.3856 0C24.3242 14.1397 27.9663 17.859 37.5657 22.7686C45.2452 26.6963 48.7323 33.4389 49.516 36.3192C52.337 34.7481 51.8103 29.904 51.1943 27.6783C56.4069 32.6832 59.7031 40.0653 59.7031 48.2987Z" fill="url(#paint0_linear)"/>
<path d="M41.6393 21.554C43.037 22.4308 45.0964 24.6577 46.1209 25.6842C46.091 24.9424 45.349 20.0173 43.6956 18.2264C41.7873 16.1595 39.8018 16.2555 36.0478 13.3768C35.0689 12.6261 31.9955 11.3056 31.301 8.39541C30.9952 11.8827 31.8532 14.0119 32.4971 14.8638C34.9789 18.147 37.5387 18.9818 41.6393 21.554Z" fill="#673AB7"/>
<path d="M41.6393 21.554C43.037 22.4308 45.0964 24.6577 46.1209 25.6842C46.091 24.9424 45.349 20.0173 43.6956 18.2264C41.7873 16.1595 39.8018 16.2555 36.0478 13.3768C35.0689 12.6261 31.9955 11.3056 31.301 8.39541C30.9952 11.8827 31.8532 14.0119 32.4971 14.8638C34.9789 18.147 37.5387 18.9818 41.6393 21.554Z" fill="url(#paint1_linear)"/>
<path d="M18.3745 32.6046C18.4113 32.9247 18.4561 33.2794 18.5031 33.6117C18.5031 33.6117 18.8 33.6969 19.2269 33.8399C19.656 33.9605 20.252 34.1086 20.8256 34.2545C21.389 34.3882 21.9872 34.5139 22.4206 34.5897L23.143 34.7161C23.143 34.7161 22.0608 34.8035 20.9484 34.8541C20.3921 34.8794 19.8381 34.8823 19.4306 34.8881C19.0131 34.8816 18.7299 34.8881 18.7299 34.8881L18.8766 35.5917C18.9322 35.8344 18.99 36.0547 19.0579 36.2874C19.7717 38.9558 21.1305 42.0823 23.0889 45.0859C23.0889 45.0859 23.4718 45.1004 24.0584 45.1119C24.3513 45.1177 24.7012 45.1177 25.0512 45.1177L25.0524 45.1177C25.4147 45.1076 25.7993 45.0997 26.184 45.0917L26.1851 45.0917C26.9573 45.0534 27.6948 45.023 28.2655 44.9652C28.8239 44.9176 29.201 44.8749 29.201 44.8749C29.201 44.8749 28.8969 44.9811 28.4172 45.1495C27.9376 45.3178 27.3048 45.5504 26.664 45.7483C25.3926 46.1565 24.0808 46.5155 24.0808 46.5155C26.5355 49.9967 29.7682 53.1462 33.0948 55.5589L33.8273 56.048C34.0404 56.1816 34.2636 56.3275 34.4644 56.4713C34.5699 56.5493 34.6776 56.6049 34.783 56.683C34.8784 56.7487 34.9636 56.8021 35.059 56.8679C36.3715 56.3846 37.9759 55.8052 39.2618 55.3646C39.9069 55.1218 40.466 54.9499 40.864 54.8076C41.2621 54.6653 41.5069 54.5872 41.5069 54.5872C41.5069 54.5872 41.1515 54.7563 40.6285 55.0221C40.1055 55.288 39.4048 55.6383 38.7142 56.001C37.3229 56.714 35.9641 57.4415 35.9641 57.4415C36.4431 57.7477 36.9242 58.0316 37.3952 58.3032C37.8662 58.5749 38.3148 58.8443 38.7656 59.0913C39.6671 59.5854 40.5303 60.008 41.3084 60.3771C42.1088 60.7484 42.8507 61.0237 43.5218 61.2129C44.1806 61.4123 44.7932 61.5055 45.3147 61.4881C46.688 61.4289 47.8452 61.3826 48.8132 61.3068C49.3023 61.275 49.7364 61.2266 50.1359 61.1861L50.1361 61.1861C50.5355 61.1456 50.8778 61.111 51.1877 61.0619C52.4129 60.8979 52.9496 60.7238 52.9496 60.7238L53.7948 59.698C53.7948 59.698 53.8583 59.2746 53.8684 58.5862C53.8785 58.2481 53.8626 57.8284 53.8511 57.3639C53.8294 56.8872 53.7998 56.3757 53.7174 55.8253C53.6452 55.2871 53.5325 54.6998 53.3873 54.098C53.2421 53.4963 53.042 52.8779 52.7949 52.2776C52.55 51.6549 52.2459 51.0604 51.8847 50.4717C51.7091 50.1835 51.5112 49.8931 51.2887 49.6229C51.0662 49.3527 50.8437 49.0826 50.5966 48.8326C50.4023 48.6217 50.1856 48.4086 49.9588 48.1832C49.9588 48.1832 49.9422 49.6395 49.8931 51.0814C49.8786 51.8146 49.8541 52.5356 49.8245 53.0752C49.7948 53.6148 49.7826 53.9753 49.7826 53.9753C49.7826 53.9753 49.7139 53.5166 49.5875 52.8375C49.4611 52.1585 49.2769 51.2591 49.1049 50.3496C48.9207 49.4503 48.7387 48.5285 48.5898 47.8473C48.441 47.1661 48.3377 46.7153 48.3377 46.7153C47.8371 46.2826 47.3163 45.8254 46.7405 45.3515C46.1626 44.9 45.5645 44.424 44.9338 43.9335C44.6174 43.6994 44.3032 43.443 43.9766 43.1967C43.713 43.0016 43.4515 42.7842 43.1777 42.5769C43.052 42.4743 42.9039 42.3695 42.7782 42.267C42.6525 42.1644 42.5167 42.0495 42.391 41.947C42.1396 41.7418 41.8658 41.5345 41.6043 41.317C41.6043 41.317 41.3602 42.3219 41.1586 43.3534C41.064 43.8642 40.9571 44.385 40.8856 44.7737C40.8263 45.1522 40.7779 45.4188 40.7779 45.4188C40.7779 45.4188 40.7743 45.3393 40.7649 45.2028C40.7555 45.0662 40.7404 44.8726 40.7295 44.6342C40.6956 44.1676 40.6645 43.5543 40.6558 42.9431C40.6392 42.6477 40.6349 42.3421 40.6407 42.0488C40.6565 41.7678 40.6602 41.4969 40.6594 41.2708C40.6703 40.8085 40.676 40.5152 40.676 40.5152C40.4044 40.2855 40.1451 40.0457 39.8735 39.8159C39.7478 39.7134 39.6119 39.5985 39.4761 39.4837C39.3403 39.3688 39.2269 39.2561 39.0911 39.1412L37.8609 38.0729C37.7576 37.9724 37.642 37.8822 37.5387 37.7817C37.4231 37.6915 37.3198 37.591 37.2165 37.4906L37.2165 37.4906C37.02 37.3021 36.8011 37.1114 36.5923 36.933C36.3959 36.7444 36.1994 36.5559 36.0007 36.3897C35.802 36.2236 35.6034 36.0574 35.4271 35.8935C35.0623 35.5756 34.6953 35.2802 34.371 35.0114C34.0344 34.7528 33.7057 34.5289 33.4196 34.3317C33.2065 34.198 32.9631 34.0276 32.6972 33.8549C32.4335 33.6599 32.1598 33.4526 31.8657 33.2207C31.8657 33.2207 31.7502 33.4807 31.5746 33.8932C31.4114 34.2956 31.1759 34.8605 30.9751 35.4175C30.762 35.9845 30.5489 36.5516 30.416 36.9908C30.2729 37.4178 30.1877 37.7146 30.1877 37.7146C30.1877 37.7146 30.1964 37.6251 30.1993 37.4784C30.2144 37.3217 30.2115 37.118 30.2476 36.8615C30.2838 36.6051 30.3119 36.3141 30.3422 36.0007L30.3423 36.0004C30.3827 35.6992 30.4152 35.3633 30.4701 35.0295C30.5676 34.3722 30.663 33.7372 30.7778 33.251C30.8905 32.7873 30.9555 32.4658 30.9555 32.4658C29.7983 31.461 28.5146 30.1275 27.3992 28.5729C27.25 28.3668 27.1108 28.1729 26.9717 27.979L26.9708 27.9777C26.8314 27.7834 26.7042 27.5789 26.5771 27.3745L26.5771 27.3745L26.3813 27.0617L26.1978 26.7388C26.0729 26.512 25.9457 26.3075 25.8309 26.093C25.3714 25.2348 24.9611 24.3362 24.6504 23.4585C23.9991 22.0836 22.1043 18.8787 22.0604 18.0134L20.8983 19.9535L20.8983 19.9535C20.7893 20.1464 20.6802 20.3393 20.5588 20.5423C20.4375 20.7452 20.3486 20.9627 20.2374 21.178C20.1261 21.3932 20.0127 21.6309 19.9116 21.8584C19.8105 22.086 19.7194 22.3258 19.6161 22.5758C19.5128 22.8257 19.4319 23.0778 19.3388 23.3401C19.268 23.6045 19.1748 23.8667 19.0917 24.1412C19.0086 24.4157 18.948 24.6924 18.875 24.9792C18.8497 25.1236 18.802 25.2659 18.7768 25.4104C18.7392 25.565 18.7139 25.7095 18.6886 25.854C18.6258 26.153 18.5752 26.442 18.5225 26.7533C18.4698 27.0647 18.4293 27.3659 18.399 27.6794L18.3535 28.1497C18.3484 28.3187 18.3333 28.4755 18.3181 28.6322L18.3181 28.6323C18.3102 28.9479 18.2899 29.2737 18.2697 29.5995L18.2697 29.5995L18.2762 30.5834C18.2813 30.7647 18.2885 30.9237 18.2834 31.0927C18.2784 31.2617 18.2957 31.4329 18.303 31.5919C18.3152 31.9321 18.3398 32.2622 18.3745 32.6046Z" fill="white"/>
<path d="M59.34 66.6516C59.3761 66.7455 59.4043 66.8048 59.4043 66.8048C58.9448 66.2969 58.4507 65.7971 57.9544 65.3196C57.6951 65.0797 57.448 64.8298 57.2111 64.5921C56.964 64.3422 56.7148 64.1146 56.4779 63.877L54.7447 62.3781L53.3035 61.1537C52.3283 60.3699 51.3878 59.5782 50.453 58.8435C46.7059 55.8702 43.1886 53.326 39.9343 51.1011C39.1288 50.5485 38.3356 49.9858 37.5525 49.4353L37.5514 49.4345C37.1725 49.1494 36.7937 48.8644 36.4249 48.5916C36.3295 48.5259 36.2465 48.45 36.1511 48.3843C36.068 48.3084 35.9727 48.2427 35.8896 48.1669C35.7234 48.0152 35.545 47.8736 35.3666 47.732C33.9738 46.5914 32.7176 45.4413 31.608 44.2942C30.4984 43.1471 29.5109 42.0231 28.6353 40.9099C28.2026 40.3594 27.8046 39.801 27.4145 39.2773C27.2144 39.0093 27.0367 38.7435 26.859 38.4776L26.859 38.4776C26.6914 38.2241 26.5014 37.9684 26.346 37.7047C25.032 35.6336 24.1059 33.7583 23.4369 32.1453C22.7579 30.5199 22.3461 29.169 22.0651 28.1021L22.0651 28.102C22.0015 27.8246 21.9459 27.582 21.878 27.3494C21.8101 27.1168 21.7747 26.8986 21.7371 26.7028C21.6519 26.299 21.5803 25.987 21.5493 25.724C21.4647 25.1959 21.4315 24.9554 21.4315 24.9554C21.7378 25.8779 22.1973 27.4368 22.9703 29.3764C23.0728 29.601 23.1732 29.8481 23.2838 30.1074C23.3278 30.236 23.3943 30.3667 23.4384 30.4953C23.5048 30.6261 23.5489 30.7547 23.6154 30.8854C23.7483 31.1469 23.8689 31.4185 23.9896 31.6901C24.1326 31.9639 24.2634 32.2478 24.4064 32.5216C24.5371 32.8055 24.7026 33.0814 24.8557 33.3675L24.8557 33.3675C25.0089 33.6536 25.162 33.9396 25.3376 34.2279C25.5131 34.5161 25.6865 34.8267 25.862 35.1149C26.0599 35.4053 26.2456 35.7058 26.4312 36.0063L26.4313 36.0064C27.2086 37.2005 28.0856 38.4155 29.0543 39.6168C30.0454 40.8203 31.1059 42.0079 32.2603 43.1593C33.4147 44.3108 34.6528 45.4139 35.9524 46.4664C37.2397 47.5289 38.6173 48.476 39.9948 49.423L39.9949 49.423C42.8094 51.2889 45.5154 53.2234 47.9817 55.0669C50.4457 56.9328 52.6577 58.7178 54.4962 60.2745L57.7204 63.1835C57.7204 63.1835 57.833 63.4204 58.0043 63.7534C58.1632 64.0966 58.3806 64.5358 58.5959 64.9974C58.8133 65.4366 59.0163 65.9083 59.1652 66.2391C59.2396 66.4046 59.2937 66.5454 59.34 66.6516Z" fill="url(#paint2_linear)"/>
</g>
<defs>
<linearGradient id="paint0_linear" x1="18.4254" y1="0.432762" x2="53.4792" y2="61.0196" gradientUnits="userSpaceOnUse">
<stop stop-color="#673AB7"/>
<stop offset="1" stop-color="#351E61"/>
</linearGradient>
<linearGradient id="paint1_linear" x1="30.9755" y1="8.65534" x2="45.6895" y2="25.1003" gradientUnits="userSpaceOnUse">
<stop stop-color="#6036AC"/>
<stop offset="1" stop-color="#532F95"/>
</linearGradient>
<linearGradient id="paint2_linear" x1="20.1564" y1="0.432813" x2="56.974" y2="68.8062" gradientUnits="userSpaceOnUse">
<stop stop-color="#673AB7"/>
<stop offset="0.973958" stop-color="#361F63"/>
<stop offset="1" stop-color="#351E61"/>
</linearGradient>
<clipPath id="clip0">
<rect width="70" height="70" fill="white"/>
</clipPath>
</defs>
</svg>
